<?xml version="1.0" encoding="UTF-8" standalone="no"?>
<svg xmlnsSvg="http://www.w3.org/2000/svg" xmlns="http://www.w3.org/2000/svg" version="1.1" width="291.80634" height="223.30986" viewBox="-18 -13.75 15.563005 11.909859" id="svg2">
  <path d="m -12.474093,-1.8915464 c 2.7897834,-1.4978205 10.5777519,-5.2019027 9.0120804,-8.6812026 -0.169189,-0.341794 -0.507945,-0.626827 -0.921867,-0.775672 -0.408188,-0.146782 -1.113666,-0.09884 -1.703588,0.115759 -0.249333,0.0907 -0.6710272,0.206826 -0.985667,0.359506 -1.2688128,0.444168 -1.9322505,1.2006114 -2.9606844,2.0539968 -0.100336,-1.3038918 -0.0053,-2.5337218 -0.592392,-3.2005568 -0.751168,-0.786454 -2.136518,-1.03777 -3.179791,-0.730616 -1.643511,0.483873 -3.628266,2.179941 -3.586457,3.6816679 0.09235,3.317209 4.600471,7.0507619 4.600471,7.0507619 0,0 -4.626329,-3.8529407 -5.161957,-6.591894 -0.189977,-0.9714528 0.232391,-2.0553908 0.815208,-2.8554758 0.714275,-0.980548 1.871396,-1.647461 3.024573,-2.024085 0.809859,-0.264497 1.744822,-0.373865 2.55366,-0.106262 0.710771,0.235158 1.40054,0.748904 1.7455524,1.41333 0.3749405,0.866186 0.2151283,1.06942 0.111684,2.4896216 0.6776597,-0.8634556 4.0443365,-3.3004756 6.184701,-2.0967156 1.0757911,0.858249 1.3032481,2.3044015 0.884366,3.3968918 -1.4073774,3.6705942 -10.8313954,7.0090845 -9.8398924,6.5009448 z" id="path3798" style="fill:#ba0c0f;fill-opacity:1"/>
</svg>